<svg width="212" height="271" viewBox="0 0 212 271" fill="none" xmlns="http://www.w3.org/2000/svg">
<path d="M38.8377 5C24.5047 49.9337 2.70276 154.349 30.159 212.538C57.6152 270.728 89.2004 204.369 101.561 163.915C92.8822 206.213 88.3851 281.402 139.826 243.768C191.267 206.134 198.341 113.711 195.449 72.2029" stroke="#7DE2D1" stroke-width="32"/>
<path d="M61.8117 12C50.1211 55.6705 32.3386 157.15 54.733 213.704C77.1275 270.258 102.89 205.764 112.971 166.448C105.893 207.557 102.225 280.631 144.182 244.056C186.14 207.48 191.91 117.654 189.55 77.3137" stroke="#7DE2D1" stroke-opacity="0.47" stroke-width="32"/>
<path d="M76.1278 16C66.1988 58.9487 51.0958 158.751 70.1157 214.37C89.1357 269.989 111.016 206.561 119.579 167.895C113.566 208.324 110.451 280.191 146.086 244.22C181.721 208.249 186.622 119.908 184.618 80.2341" stroke="#7DE2D1" stroke-opacity="0.17" stroke-width="32"/>
</svg>
